# xmcd
#
# Track frame offsets: 
#        150
#        10766
#        22139
#        33619
#        43903
#        55996
#        68079
#        75922
#        88765
#        102629
#        119272
#        131976
#        141525
#        156593
#        169850
#
# Disc length: 2444 seconds
#
# Revision: 0
# Processed by: cddbd v1.5.2PL0 Copyright (c) Steve Scherf et al.
# Submitted via: ExactAudioCopy v0.95b4
#
DISCID=dc098a0f
DTITLE=Various Artist - Country Jukebox Disc 1
DYEAR=2007
DGENRE=Country
TTITLE0=Heaven's Just A Sin Away - Lynn Anderson
TTITLE1=Poem For My Little Lady - Kenny Rogers
TTITLE2=The Happiest Girl In The USA - Donna Fargo
TTITLE3=A Man Can Cry - Freddy Fender
TTITLE4=Two Little Orphans - Dolly Parton
TTITLE5=Next In Line - Johnny Cash
TTITLE6=Mean Old Greyhound Bus - Waylon Jennings
TTITLE7=When The Grass Grows Over Me - George Jones
TTITLE8=Mr Walker, It's All Over - Billie Jo Spears 
TTITLE9=I Let My Mind Wander - Willie Nelson
TTITLE10=Ruby, Don't Take Your Love To Town - Keny Rogers
TTITLE11=I Wonder If You Care As Much - The Everly Brothers
TTITLE12=Desperado - Lynn Anderson
TTITLE13=Where Do We Go From Here - Don Williams
TTITLE14=You'll Always Have Someone - Willie Nelson
EXTD=
EXTT0=
EXTT1=
EXTT2=
EXTT3=
EXTT4=
EXTT5=
EXTT6=
EXTT7=
EXTT8=
EXTT9=
EXTT10=
EXTT11=
EXTT12=
EXTT13=
EXTT14=
PLAYORDER=
